<svg version="1.1" id="Layer_1" xmlns="http://www.w3.org/2000/svg" xmlns:xlink="http://www.w3.org/1999/xlink" x="0px" y="0px"
	 width="100%" viewBox="0 0 250 150" enable-background="new 0 0 250 150" xml:space="preserve">
<path fill="#FFFEFE" opacity="1.000000" stroke="none" 
	d="
M181.000000,151.000000 
	C120.666672,151.000000 60.833340,151.000000 1.000008,151.000000 
	C1.000005,101.000008 1.000005,51.000011 1.000003,1.000015 
	C84.333321,1.000010 167.666641,1.000010 250.999969,1.000005 
	C250.999985,50.999985 250.999985,100.999969 251.000000,150.999969 
	C227.833328,151.000000 204.666672,151.000000 181.000000,151.000000 
M119.890099,108.787170 
	C122.512566,108.820999 125.143600,108.979248 127.751335,108.799438 
	C128.387360,108.755577 128.946884,107.602219 129.989319,107.016434 
	C130.501282,107.027390 131.013229,107.038345 132.098862,108.180649 
	C137.725159,108.485512 143.351456,108.790375 149.727371,109.388206 
	C155.319824,109.388206 160.912277,109.388206 166.764252,109.388206 
	C166.764252,104.503601 166.764252,99.744972 166.908127,94.060982 
	C166.875549,69.377403 166.842957,44.693817 166.902954,19.432825 
	C166.602325,19.285168 166.301682,19.137510 165.243134,19.001125 
	C146.829941,25.382278 128.416733,31.763432 109.254150,38.162006 
	C92.840370,43.839508 76.426582,49.517010 59.266792,55.220905 
	C43.102531,60.774456 26.918392,66.271851 10.807127,71.975121 
	C9.322102,72.500816 7.265764,74.308472 7.229123,75.571747 
	C6.935861,85.682373 7.065273,95.805260 7.065273,105.868629 
	C7.812904,106.156151 8.266092,106.477272 8.725104,106.485817 
	C27.485983,106.835320 46.247383,107.156662 65.921440,107.702477 
	C77.616669,107.835335 89.311897,107.968201 101.816536,108.317871 
	C103.204315,108.280998 104.592102,108.244118 106.751595,108.421700 
	C107.812660,108.391380 108.873734,108.361069 110.666481,108.635765 
	C113.448067,108.621727 116.229652,108.607697 119.890099,108.787170 
M36.301338,110.018219 
	C34.459858,110.018219 32.618378,110.018219 30.776897,110.018219 
	C30.745682,110.394073 30.714466,110.769936 30.683250,111.145790 
	C32.806644,111.402321 34.930042,111.658852 37.866413,112.015266 
	C51.630436,114.161667 65.366760,116.509720 79.165199,118.405624 
	C98.248062,121.027596 117.070602,125.465546 136.568497,125.182846 
	C154.213593,124.927017 171.874115,125.907669 189.530334,126.181328 
	C200.356125,126.349136 211.186646,126.212372 223.165497,126.212372 
	C214.785355,124.117828 207.452484,122.209023 200.081543,120.460800 
	C189.415085,117.930962 178.788025,113.773170 168.027039,113.359955 
	C124.418915,111.685448 80.765991,111.177536 36.301338,110.018219 
M178.414917,22.110022 
	C176.200027,20.749689 173.985153,19.389357 171.304993,17.743265 
	C171.304993,48.873894 171.304993,79.275063 171.304993,110.082336 
	C193.079895,115.430450 214.823135,120.770782 237.204636,126.267883 
	C237.204636,124.021614 237.204865,122.394943 237.204620,120.768280 
	C237.201904,102.109283 237.091095,83.449165 237.286652,64.792244 
	C237.326157,61.023937 236.268951,58.823040 232.990906,56.779812 
	C214.906601,45.507732 196.992203,33.963070 178.414917,22.110022 
z"/>
<path fill="#FCCB0C" opacity="1.000000" stroke="none" 
	d="
M178.717224,22.310949 
	C196.992203,33.963070 214.906601,45.507732 232.990906,56.779812 
	C236.268951,58.823040 237.326157,61.023937 237.286652,64.792244 
	C237.091095,83.449165 237.201904,102.109283 237.204620,120.768280 
	C237.204865,122.394943 237.204636,124.021614 237.204636,126.267883 
	C214.823135,120.770782 193.079895,115.430450 171.304993,110.082336 
	C171.304993,79.275063 171.304993,48.873894 171.304993,17.743265 
	C173.985153,19.389357 176.200027,20.749689 178.717224,22.310949 
M179.174118,107.300865 
	C183.330322,108.778732 187.412949,110.528473 191.658157,111.677452 
	C200.300003,114.016403 201.931152,112.733955 202.918411,103.594131 
	C203.007751,102.767021 203.085861,101.933586 203.087799,101.102898 
	C203.131531,82.451683 203.235962,63.799828 203.080551,45.150173 
	C203.065903,43.391685 201.403564,41.646931 200.506210,39.895802 
	C199.829346,40.094055 199.152481,40.292305 198.475616,40.490559 
	C198.475616,60.457630 198.475616,80.424706 198.475616,100.497589 
	C185.906128,98.496803 185.195892,97.688911 185.193832,86.247009 
	C185.190964,70.259819 185.190262,54.272629 185.188980,38.285439 
	C185.188278,29.661074 184.552994,28.804827 175.492630,25.357161 
	C175.384293,25.818779 175.191498,26.257229 175.191391,26.695724 
	C175.186417,47.179199 174.929337,67.668472 175.370987,88.142639 
	C175.504395,94.327057 177.580811,100.469566 179.174118,107.300865 
M234.085632,80.508499 
	C234.058426,77.350677 234.598801,74.053413 233.865555,71.069054 
	C232.867157,67.005424 231.970963,61.901489 229.125854,59.511932 
	C222.615799,54.044281 214.949585,49.953201 207.022110,44.830872 
	C207.022110,68.208298 206.996033,90.588722 207.112213,112.968407 
	C207.117126,113.918327 208.257217,115.370850 209.187317,115.706963 
	C211.480957,116.535828 213.960312,116.850815 217.071838,117.525711 
	C217.071838,109.509514 217.071838,102.017853 217.071838,94.627846 
	C217.857834,94.535179 218.043167,94.454796 218.178909,94.505959 
	C220.975876,95.560013 223.756531,96.658104 226.562088,97.688499 
	C231.082977,99.348885 233.147141,98.312126 233.747299,93.443710 
	C234.232529,89.507584 234.000168,85.482994 234.085632,80.508499 
z"/>
<path fill="#F17F05" opacity="1.000000" stroke="none" 
	d="
M110.003540,38.144585 
	C128.416733,31.763432 146.829941,25.382278 165.702667,19.204300 
	C166.318375,19.672789 166.534424,19.873709 166.810364,20.010237 
	C166.842957,44.693817 166.875549,69.377403 166.501129,94.526993 
	C165.423981,94.993355 164.753860,94.993713 163.979034,94.583382 
	C159.465256,93.703621 155.056168,93.234550 150.544617,92.754570 
	C150.544617,85.957153 150.544617,79.091446 150.544617,72.310982 
	C164.227875,69.628006 164.228668,69.627922 162.979462,57.720181 
	C162.963867,57.571522 162.811646,57.437199 162.503128,56.945366 
	C158.661209,57.599644 154.650284,58.282703 150.148422,59.049370 
	C150.148422,56.003185 150.148376,53.367317 150.148453,50.731449 
	C150.148743,40.543762 150.171417,40.613998 159.727188,37.529491 
	C161.200516,37.053917 163.324738,35.722401 163.478912,34.564510 
	C163.965363,30.910894 163.658325,27.151628 163.658325,22.960583 
	C156.191696,25.500582 149.667450,27.981628 142.979248,29.887209 
	C139.522491,30.872097 138.829575,32.612534 138.852264,35.917202 
	C139.003052,57.888733 138.932846,79.861748 138.953400,101.834267 
	C138.954895,103.443733 139.104996,105.053070 139.210022,107.139328 
	C142.727798,107.139328 145.859573,107.139328 148.995728,107.465332 
	C148.992661,108.225975 148.985214,108.660606 148.977753,109.095230 
	C143.351456,108.790375 137.725159,108.485512 132.581268,107.576843 
	C133.959412,102.860672 134.855148,98.748314 135.835342,94.248177 
	C130.550095,94.248177 126.777107,94.248177 122.933243,93.995880 
	C122.620895,93.499481 122.379410,93.255371 122.069763,92.546295 
	C122.001587,73.956543 122.001587,55.831760 122.001587,37.337940 
	C118.060440,38.519470 114.904854,39.465492 111.413223,40.236549 
	C110.719299,39.422588 110.361420,38.783588 110.003540,38.144585 
z"/>
<path fill="#F17F05" opacity="1.000000" stroke="none" 
	d="
M109.628845,38.153297 
	C110.361420,38.783588 110.719299,39.422588 111.111603,40.586052 
	C110.999924,41.916515 110.725571,42.722656 110.726440,43.528507 
	C110.748726,64.129204 110.799782,84.729858 110.710205,105.616669 
	C110.361328,106.712120 110.148064,107.521439 109.934799,108.330750 
	C108.873734,108.361069 107.812660,108.391380 106.369255,107.916290 
	C105.994522,106.615822 106.002129,105.820755 105.956291,104.624474 
	C101.977097,85.244553 98.051361,66.265846 94.138969,47.351639 
	C86.120445,48.232155 81.792397,51.368958 80.203545,59.590195 
	C77.694969,72.570435 73.533752,85.231285 69.734924,98.022354 
	C68.723808,98.003380 68.049789,97.989372 67.123703,97.590393 
	C63.586754,97.125763 60.291859,96.853065 57.019913,97.022781 
	C53.980053,97.180466 52.842899,96.079918 52.923283,93.040955 
	C53.072357,87.405457 52.930084,81.762924 52.974316,76.123825 
	C53.047153,66.837624 51.831772,68.173363 60.983967,65.541466 
	C67.691238,63.612667 67.693138,63.619286 66.169159,56.269573 
	C64.109207,56.825348 62.055981,57.379307 60.000877,57.590904 
	C60.003601,56.563862 60.008202,55.879185 60.012798,55.194511 
	C76.426582,49.517010 92.840370,43.839508 109.628845,38.153297 
z"/>
<path fill="#848273" opacity="1.000000" stroke="none" 
	d="
M37.129593,110.239220 
	C80.765991,111.177536 124.418915,111.685448 168.027039,113.359955 
	C178.788025,113.773170 189.415085,117.930962 200.081543,120.460800 
	C207.452484,122.209023 214.785355,124.117828 223.165497,126.212372 
	C211.186646,126.212372 200.356125,126.349136 189.530334,126.181328 
	C171.874115,125.907669 154.213593,124.927017 136.568497,125.182846 
	C117.070602,125.465546 98.248062,121.027596 79.165199,118.405624 
	C65.366760,116.509720 51.630436,114.161667 37.432842,111.685440 
	C37.042713,110.983482 37.086155,110.611351 37.129593,110.239220 
z"/>
<path fill="#FEFBF8" opacity="1.000000" stroke="none" 
	d="
M110.845825,105.330528 
	C110.799782,84.729858 110.748726,64.129204 110.726440,43.528507 
	C110.725571,42.722656 110.999924,41.916515 111.447655,40.761009 
	C114.904854,39.465492 118.060440,38.519470 122.001587,37.337940 
	C122.001587,55.831760 122.001587,73.956543 122.033020,92.857063 
	C122.377670,93.837921 122.690895,94.043053 123.004120,94.248177 
	C126.777107,94.248177 130.550095,94.248177 135.835342,94.248177 
	C134.855148,98.748314 133.959412,102.860672 132.294434,107.011169 
	C131.013229,107.038345 130.501282,107.027390 129.320007,106.947495 
	C125.432892,106.570923 122.215080,106.263283 118.619827,105.837975 
	C115.776871,105.590370 113.311348,105.460449 110.845825,105.330528 
z"/>
<path fill="#F28312" opacity="1.000000" stroke="none" 
	d="
M59.639793,55.207706 
	C60.008202,55.879185 60.003601,56.563862 59.697987,57.794113 
	C56.425724,59.388065 53.507046,60.634022 50.471733,61.441574 
	C45.015411,62.893246 42.301159,66.754387 42.048267,71.905197 
	C41.641586,80.188362 41.704227,88.514359 42.014042,96.805618 
	C42.205597,101.932022 44.921154,104.025368 50.099556,104.237900 
	C55.066402,104.441742 60.031048,104.699310 64.994766,105.251968 
	C64.998161,106.207642 65.003441,106.844612 65.008728,107.481590 
	C46.247383,107.156662 27.485983,106.835320 8.725104,106.485817 
	C8.266092,106.477272 7.812904,106.156151 7.065273,105.868629 
	C7.065273,95.805260 6.935861,85.682373 7.229123,75.571747 
	C7.265764,74.308472 9.322102,72.500816 10.807127,71.975121 
	C26.918392,66.271851 43.102531,60.774456 59.639793,55.207706 
M26.461857,69.878838 
	C23.149128,70.990952 19.835590,72.100677 16.523870,73.215790 
	C12.229369,74.661812 9.977649,77.568069 10.071845,82.185165 
	C10.112610,84.183319 10.177132,86.188797 10.059037,88.180771 
	C9.795951,92.618454 12.019630,94.219070 16.177647,93.807472 
	C19.752363,93.453621 23.330732,93.136673 26.978664,92.796776 
	C27.969345,96.317184 27.754906,98.274048 23.961910,98.265732 
	C20.803059,98.258804 17.640705,98.758553 14.484988,98.709152 
	C11.148072,98.656914 10.342661,100.044617 11.754447,103.903137 
	C18.543978,103.903137 25.674259,104.074341 32.790440,103.831787 
	C36.415409,103.708237 37.896759,100.911758 38.049404,97.631012 
	C38.250500,93.308884 38.253998,88.969589 38.140827,84.642944 
	C38.016857,79.903824 36.057816,78.364815 31.419443,79.245018 
	C28.069380,79.880753 24.754587,80.702362 21.424063,81.441063 
	C21.070681,80.935425 20.717299,80.429787 20.363916,79.924141 
	C21.406881,78.689415 22.213856,76.892578 23.541235,76.335289 
	C26.432739,75.121338 29.551514,74.342545 32.646801,73.745987 
	C36.882458,72.929642 38.084034,70.797188 36.264023,66.600853 
	C33.177811,67.633904 30.197124,68.631638 26.461857,69.878838 
z"/>
<path fill="#F18005" opacity="1.000000" stroke="none" 
	d="
M65.465088,107.592033 
	C65.003441,106.844612 64.998161,106.207642 65.269699,105.176949 
	C65.923828,104.811928 66.301147,104.840630 67.098160,104.906059 
	C68.079056,104.934578 68.640259,104.926361 69.596558,104.887627 
	C73.061096,105.431137 74.481880,104.018463 75.028046,101.058655 
	C75.505112,98.473297 76.224815,95.901688 77.159660,93.446747 
	C77.545692,92.433014 78.682869,91.151894 79.634247,91.005569 
	C83.177841,90.460602 86.786110,90.336143 90.618027,90.034325 
	C91.861397,95.251038 93.027328,100.142883 94.178398,104.972359 
	C96.742958,105.177635 98.867661,105.347694 100.991364,105.840637 
	C100.995956,106.809364 101.001541,107.455208 101.007126,108.101059 
	C89.311897,107.968201 77.616669,107.835335 65.465088,107.592033 
z"/>
<path fill="#F28312" opacity="1.000000" stroke="none" 
	d="
M149.352570,109.241722 
	C148.985214,108.660606 148.992661,108.225975 149.451126,107.394943 
	C154.464676,106.998535 159.027237,106.998535 164.083725,106.998535 
	C164.083725,102.240364 164.083725,98.617218 164.083725,94.994072 
	C164.753860,94.993713 165.423981,94.993355 166.429184,94.989670 
	C166.764252,99.744972 166.764252,104.503601 166.764252,109.388206 
	C160.912277,109.388206 155.319824,109.388206 149.352570,109.241722 
z"/>
<path fill="#F28312" opacity="1.000000" stroke="none" 
	d="
M110.710213,105.616669 
	C113.311348,105.460449 115.776871,105.590370 118.617767,106.167786 
	C118.999184,107.274742 119.005211,107.934196 119.011238,108.593658 
	C116.229652,108.607697 113.448067,108.621727 110.300644,108.483261 
	C110.148064,107.521439 110.361328,106.712120 110.710213,105.616669 
z"/>
<path fill="#F17F05" opacity="1.000000" stroke="none" 
	d="
M119.450668,108.690414 
	C119.005211,107.934196 118.999184,107.274742 118.995216,106.285461 
	C122.215080,106.263283 125.432892,106.570923 129.096130,106.918777 
	C128.946884,107.602219 128.387360,108.755577 127.751335,108.799438 
	C125.143600,108.979248 122.512566,108.820999 119.450668,108.690414 
z"/>
<path fill="#F28312" opacity="1.000000" stroke="none" 
	d="
M101.411827,108.209465 
	C101.001541,107.455208 100.995956,106.809364 101.404083,105.755760 
	C103.215111,105.240570 104.612427,105.133125 106.009743,105.025688 
	C106.002129,105.820755 105.994522,106.615822 105.983398,107.809067 
	C104.592102,108.244118 103.204315,108.280998 101.411827,108.209465 
z"/>
<path fill="#B5B4AB" opacity="1.000000" stroke="none" 
	d="
M36.715466,110.128723 
	C37.086155,110.611351 37.042713,110.983482 37.026352,111.635498 
	C34.930042,111.658852 32.806644,111.402321 30.683250,111.145790 
	C30.714466,110.769936 30.745682,110.394073 30.776897,110.018219 
	C32.618378,110.018219 34.459858,110.018219 36.715466,110.128723 
z"/>
<path fill="#F3922A" opacity="1.000000" stroke="none" 
	d="
M166.856659,19.721531 
	C166.534424,19.873709 166.318375,19.672789 166.081635,19.198664 
	C166.301682,19.137510 166.602325,19.285168 166.856659,19.721531 
z"/>
<path fill="#FEFDF8" opacity="1.000000" stroke="none" 
	d="
M178.970673,106.966064 
	C177.580811,100.469566 175.504395,94.327057 175.370987,88.142639 
	C174.929337,67.668472 175.186417,47.179199 175.191391,26.695724 
	C175.191498,26.257229 175.384293,25.818779 175.492630,25.357161 
	C184.552994,28.804827 185.188278,29.661074 185.188980,38.285439 
	C185.190262,54.272629 185.190964,70.259819 185.193832,86.247009 
	C185.195892,97.688911 185.906128,98.496803 198.475616,100.497589 
	C198.475616,80.424706 198.475616,60.457630 198.475616,40.490559 
	C199.152481,40.292305 199.829346,40.094055 200.506210,39.895802 
	C201.403564,41.646931 203.065903,43.391685 203.080551,45.150173 
	C203.235962,63.799828 203.131531,82.451683 203.087799,101.102898 
	C203.085861,101.933586 203.007751,102.767021 202.918411,103.594131 
	C201.931152,112.733955 200.300003,114.016403 191.658157,111.677452 
	C187.412949,110.528473 183.330322,108.778732 178.970673,106.966064 
z"/>
<path fill="#FEFDF8" opacity="1.000000" stroke="none" 
	d="
M234.085876,81.003075 
	C234.000168,85.482994 234.232529,89.507584 233.747299,93.443710 
	C233.147141,98.312126 231.082977,99.348885 226.562088,97.688499 
	C223.756531,96.658104 220.975876,95.560013 218.178909,94.505959 
	C218.043167,94.454796 217.857834,94.535179 217.071838,94.627846 
	C217.071838,102.017853 217.071838,109.509514 217.071838,117.525711 
	C213.960312,116.850815 211.480957,116.535828 209.187317,115.706963 
	C208.257217,115.370850 207.117126,113.918327 207.112213,112.968407 
	C206.996033,90.588722 207.022110,68.208298 207.022110,44.830872 
	C214.949585,49.953201 222.615799,54.044281 229.125854,59.511932 
	C231.970963,61.901489 232.867157,67.005424 233.865555,71.069054 
	C234.598801,74.053413 234.058426,77.350677 234.085876,81.003075 
M216.967850,70.597527 
	C216.969009,73.089577 217.230026,75.614792 216.917145,78.066772 
	C216.270004,83.138229 218.864487,84.834183 224.054764,85.154037 
	C224.054764,80.456665 223.768250,76.006943 224.129181,71.610374 
	C224.555420,66.418106 222.071838,64.066536 216.967697,62.981724 
	C216.967697,65.407303 216.967697,67.525185 216.967850,70.597527 
z"/>
<path fill="#FEFCF9" opacity="1.000000" stroke="none" 
	d="
M163.979034,94.583382 
	C164.083725,98.617218 164.083725,102.240364 164.083725,106.998535 
	C159.027237,106.998535 154.464676,106.998535 149.446747,107.068932 
	C145.859573,107.139328 142.727798,107.139328 139.210022,107.139328 
	C139.104996,105.053070 138.954895,103.443733 138.953400,101.834267 
	C138.932846,79.861748 139.003052,57.888733 138.852264,35.917202 
	C138.829575,32.612534 139.522491,30.872097 142.979248,29.887209 
	C149.667450,27.981628 156.191696,25.500582 163.658325,22.960583 
	C163.658325,27.151628 163.965363,30.910894 163.478912,34.564510 
	C163.324738,35.722401 161.200516,37.053917 159.727188,37.529491 
	C150.171417,40.613998 150.148743,40.543762 150.148453,50.731449 
	C150.148376,53.367317 150.148422,56.003185 150.148422,59.049370 
	C154.650284,58.282703 158.661209,57.599644 162.503128,56.945366 
	C162.811646,57.437199 162.963867,57.571522 162.979462,57.720181 
	C164.228668,69.627922 164.227875,69.628006 150.544617,72.310982 
	C150.544617,79.091446 150.544617,85.957153 150.544617,92.754570 
	C155.056168,93.234550 159.465256,93.703621 163.979034,94.583382 
z"/>
<path fill="#F28312" opacity="1.000000" stroke="none" 
	d="
M122.933243,93.995880 
	C122.690895,94.043053 122.377670,93.837921 122.101189,93.322029 
	C122.379410,93.255371 122.620895,93.499481 122.933243,93.995880 
z"/>
<path fill="#FEFAF7" opacity="1.000000" stroke="none" 
	d="
M105.956291,104.624474 
	C104.612427,105.133125 103.215111,105.240570 101.405075,105.432884 
	C98.867661,105.347694 96.742958,105.177635 94.178398,104.972359 
	C93.027328,100.142883 91.861397,95.251038 90.618027,90.034325 
	C86.786110,90.336143 83.177841,90.460602 79.634247,91.005569 
	C78.682869,91.151894 77.545692,92.433014 77.159660,93.446747 
	C76.224815,95.901688 75.505112,98.473297 75.028046,101.058655 
	C74.481880,104.018463 73.061096,105.431137 69.499054,104.507065 
	C69.361649,102.113777 69.716827,100.070549 70.072021,98.027313 
	C73.533752,85.231285 77.694969,72.570435 80.203545,59.590195 
	C81.792397,51.368958 86.120445,48.232155 94.138969,47.351639 
	C98.051361,66.265846 101.977097,85.244553 105.956291,104.624474 
M88.141327,77.141220 
	C87.092003,72.750603 86.042679,68.359985 84.993355,63.969368 
	C84.726044,64.013573 84.458740,64.057770 84.191429,64.101974 
	C82.884918,69.834366 81.578407,75.566757 80.165146,81.767517 
	C82.782494,81.452339 84.822281,81.493591 86.624512,80.859566 
	C87.434494,80.574615 87.769684,78.940063 88.141327,77.141220 
z"/>
<path fill="#FEFBF7" opacity="1.000000" stroke="none" 
	d="
M66.678467,104.869324 
	C66.301147,104.840630 65.923828,104.811928 65.271584,104.858246 
	C60.031048,104.699310 55.066402,104.441742 50.099556,104.237900 
	C44.921154,104.025368 42.205597,101.932022 42.014042,96.805618 
	C41.704227,88.514359 41.641586,80.188362 42.048267,71.905197 
	C42.301159,66.754387 45.015411,62.893246 50.471733,61.441574 
	C53.507046,60.634022 56.425724,59.388065 59.699860,58.136482 
	C62.055981,57.379307 64.109207,56.825348 66.169159,56.269573 
	C67.693138,63.619286 67.691238,63.612667 60.983967,65.541466 
	C51.831772,68.173363 53.047153,66.837624 52.974316,76.123825 
	C52.930084,81.762924 53.072357,87.405457 52.923283,93.040955 
	C52.842899,96.079918 53.980053,97.180466 57.019913,97.022781 
	C60.291859,96.853065 63.586754,97.125763 67.029823,98.016525 
	C67.018166,100.841530 66.848320,102.855423 66.678467,104.869324 
z"/>
<path fill="#F28312" opacity="1.000000" stroke="none" 
	d="
M67.098160,104.906059 
	C66.848320,102.855423 67.018166,100.841530 67.281891,98.401489 
	C68.049789,97.989372 68.723808,98.003380 69.734924,98.022354 
	C69.716827,100.070549 69.361649,102.113777 69.103966,104.537582 
	C68.640259,104.926361 68.079056,104.934578 67.098160,104.906059 
z"/>
<path fill="#FEF9F5" opacity="1.000000" stroke="none" 
	d="
M26.839149,69.754105 
	C30.197124,68.631638 33.177811,67.633904 36.264023,66.600853 
	C38.084034,70.797188 36.882458,72.929642 32.646801,73.745987 
	C29.551514,74.342545 26.432739,75.121338 23.541235,76.335289 
	C22.213856,76.892578 21.406881,78.689415 20.363916,79.924141 
	C20.717299,80.429787 21.070681,80.935425 21.424063,81.441063 
	C24.754587,80.702362 28.069380,79.880753 31.419443,79.245018 
	C36.057816,78.364815 38.016857,79.903824 38.140827,84.642944 
	C38.253998,88.969589 38.250500,93.308884 38.049404,97.631012 
	C37.896759,100.911758 36.415409,103.708237 32.790440,103.831787 
	C25.674259,104.074341 18.543978,103.903137 11.754447,103.903137 
	C10.342661,100.044617 11.148072,98.656914 14.484988,98.709152 
	C17.640705,98.758553 20.803059,98.258804 23.961910,98.265732 
	C27.754906,98.274048 27.969345,96.317184 26.978664,92.796776 
	C23.330732,93.136673 19.752363,93.453621 16.177647,93.807472 
	C12.019630,94.219070 9.795951,92.618454 10.059037,88.180771 
	C10.177132,86.188797 10.112610,84.183319 10.071845,82.185165 
	C9.977649,77.568069 12.229369,74.661812 16.523870,73.215790 
	C19.835590,72.100677 23.149128,70.990952 26.839149,69.754105 
z"/>
<path fill="#FCCA0A" opacity="1.000000" stroke="none" 
	d="
M216.967773,70.120300 
	C216.967697,67.525185 216.967697,65.407303 216.967697,62.981724 
	C222.071838,64.066536 224.555420,66.418106 224.129181,71.610374 
	C223.768250,76.006943 224.054764,80.456665 224.054764,85.154037 
	C218.864487,84.834183 216.270004,83.138229 216.917145,78.066772 
	C217.230026,75.614792 216.969009,73.089577 216.967773,70.120300 
z"/>
<path fill="#F28717" opacity="1.000000" stroke="none" 
	d="
M88.230820,77.529556 
	C87.769684,78.940063 87.434494,80.574615 86.624512,80.859566 
	C84.822281,81.493591 82.782494,81.452339 80.165146,81.767517 
	C81.578407,75.566757 82.884918,69.834366 84.191429,64.101974 
	C84.458740,64.057770 84.726044,64.013573 84.993355,63.969368 
	C86.042679,68.359985 87.092003,72.750603 88.230820,77.529556 
z"/>
</svg>